<svg width="32" height="32" viewBox="0 0 32 32" fill="none" xmlns="http://www.w3.org/2000/svg">
<rect width="32" height="32" fill="#0A0A0A"/>
<path fill-rule="evenodd" clip-rule="evenodd" d="M8.39403 11.8961C8.39403 11.8961 7.64925 14.0743 7.74923 16.1227C7.8492 18.1577 8.36539 20.3207 8.36539 20.8796C8.36539 21.4239 8.02108 23.3729 8.02108 23.3729L9.92742 22.2406C9.92742 22.2406 9.28261 21.3806 9.0967 20.3202C8.89561 19.2457 9.15399 18.0712 10.2712 18.0426C11.3743 17.9993 13.0796 17.2832 13.0796 17.2832C13.0796 17.2832 12.7358 18.9733 12.0197 19.5754C11.2889 20.1629 10.5009 20.1629 10.5009 20.1629C10.5009 20.1629 10.816 22.4551 10.1145 24.5755C9.41124 26.7104 8.52322 28 8.52322 28C8.52322 28 11.8613 26.2234 14.6545 26.4386C14.6545 26.4386 12.6061 21.2374 18.0931 21.2374C17.864 20.3202 17.5202 18.8879 16.9759 17.6702C16.6895 17.9134 16.3025 18.0712 15.8874 18.0712C14.9556 18.0712 14.1967 17.3118 14.1967 16.3806C14.1967 15.9941 14.34 15.6212 14.5691 15.3347C13.7384 15.392 11.1159 15.2774 8.39403 11.8961Z" fill="#FEFEFE"/>
<path fill-rule="evenodd" clip-rule="evenodd" d="M9.74097 12.4403C13.0936 9.54657 19.426 10.5351 20.2573 16.4951C20.787 20.3067 23.2657 22.7135 23.2657 22.7135C23.2657 22.7135 20.8302 23.9739 20.4438 24.0317C20.0135 24.1171 18.9823 21.3239 15.6869 22.527C16.2885 22.0254 17.177 21.8822 18.0937 21.8822H18.9244L18.7239 21.0801C18.3796 19.7759 17.9359 17.8561 17.0619 16.4378C17.0333 17.068 16.5176 17.5696 15.8874 17.5696C15.2286 17.5696 14.6978 17.0394 14.6978 16.38C14.6978 15.7352 15.228 15.2055 15.8874 15.2055C15.9301 15.2055 15.9728 15.2055 16.0161 15.2055C14.8556 14.3023 14.3546 14.9044 13.0217 14.518C11.7754 14.1597 10.6722 13.3722 9.74097 12.4403Z" fill="#FEFEFE"/>
<mask id="mask0_685_104" style="mask-type:luminance" maskUnits="userSpaceOnUse" x="7" y="4" width="18" height="15">
<path d="M7 4H24.7912V18.9542H7V4Z" fill="white"/>
</mask>
<g mask="url(#mask0_685_104)">
<path fill-rule="evenodd" clip-rule="evenodd" d="M9.52578 11.7961L7.00439 4.51788C16.4889 2.13973 24.8563 8.94448 24.7417 18.9452L22.0625 18.6014C21.9187 12.4696 17.2629 7.15384 10.7295 9.13096L11.3602 10.7357C11.2024 10.793 11.0592 10.8649 10.9159 10.9222C10.4144 11.1654 9.95602 11.4518 9.52578 11.7961Z" fill="#FEFEFE"/>
</g>
</svg>
